<?xml version="1.0" encoding="UTF-8"?>
<svg id="Layer_1" data-name="Layer 1" xmlns="http://www.w3.org/2000/svg" viewBox="0 0 293.1 154.04">
  <defs>
    <style>
      .cls-1 {
        fill: #fff;
      }
    </style>
  </defs>
  <path class="cls-1" d="M108.12,71.64l1.64,5.14h5.23v-23.51s-17.98,0-17.98,0v8.05s8.57,0,8.57,0v.21c0,.49-.18,1.16-.53,1.98-.36.83-.93,1.64-1.72,2.44-.79.8-1.82,1.49-3.09,2.08-1.27.6-2.84.91-4.66.91-4.02,0-7.04-1.01-9.06-3.02-2.01-2.02-3.01-4.94-3.01-8.79s.98-6.85,2.96-9c1.98-2.15,4.74-3.23,8.32-3.23,2.78,0,4.97.44,6.56,1.32,1.58.88,2.92,2.09,3.97,3.6l8.36-5.29c-1.69-2.68-4.04-4.77-7.07-6.27-3.02-1.5-6.94-2.25-11.77-2.25-3.5,0-6.61.52-9.35,1.56-2.73,1.04-5.05,2.5-6.94,4.36-.81.81-1.53,1.7-2.18,2.64v-7.83s-4.94,0-4.94,0c.43-.36.86-.73,1.25-1.13,1.91-1.89,3.38-4.15,4.47-6.75,1.06-2.59,1.58-5.4,1.58-8.45s-.56-5.91-1.72-8.44c-1.15-2.52-2.72-4.66-4.67-6.43-1.96-1.76-4.24-3.13-6.85-4.1C62.86.48,60.08,0,57.12,0c-2.97,0-5.75.52-8.36,1.55-2.62,1.05-4.9,2.5-6.86,4.34-1.8,1.69-3.23,3.69-4.34,5.95-.99-2.26-2.35-4.19-4.11-5.79-1.88-1.7-4.15-2.98-6.81-3.85-2.67-.88-5.63-1.33-8.92-1.33H.18v40.02s17.26,0,17.26,0c3.57,0,6.7-.5,9.41-1.48,2.73-.99,5-2.38,6.85-4.16,1.56-1.53,2.77-3.32,3.69-5.36.98,2.21,2.28,4.17,3.92,5.84.36.36.74.69,1.12,1.02h-4.34v23.56c0,5.83,1.61,10.18,4.84,13.08,1.83,1.63,4.15,2.79,6.94,3.5l-10.94,28.92h-17.94s0-31.76,0-31.76h-10.39v40.02s25.2,0,25.2,0h0s10.06,0,10.06,0l2.65-7.46h16.46s2.64,7.46,2.64,7.46h10.95s-.82-2.15-.82-2.15c1.03.62,2.1,1.21,3.31,1.69,1.67.67,3.55,1.19,5.58,1.56,2.05.37,4.32.55,6.83.55,6.18,0,10.71-1.07,13.61-3.2,2.9-2.15,4.34-5.41,4.34-9.82,0-2.44-.51-4.42-1.53-5.96-1.03-1.53-2.35-2.78-4.01-3.73-1.64-.96-3.49-1.66-5.55-2.12-2.07-.45-4.11-.82-6.16-1.05-1.92-.22-3.48-.42-4.74-.64-1.27-.21-2.26-.47-3.03-.77-.75-.3-1.29-.67-1.59-1.12-.3-.44-.45-1-.45-1.67,0-1.27.59-2.18,1.77-2.75,1.19-.57,3.15-.84,5.9-.84,1.6,0,3.03.14,4.28.45,1.24.3,2.36.67,3.33,1.13.98.45,1.81.99,2.5,1.59.69.6,1.27,1.19,1.72,1.75l6.41-6.09c-2.04-2.17-4.46-3.82-7.27-5,.97-.5,1.86-1.07,2.66-1.74.89-.76,1.72-1.6,2.46-2.51ZM25.7,29.54c-1.87,1.88-4.34,2.83-7.41,2.83h-7.74s0-22.97,0-22.97h7.63c1.51,0,2.91.22,4.15.66,1.26.44,2.35,1.13,3.26,2.06.91.94,1.63,2.12,2.14,3.57.51,1.46.77,3.16.77,5.15,0,3.92-.93,6.82-2.8,8.71ZM47.06,15.59c.53-1.47,1.27-2.7,2.23-3.69.94-.98,2.09-1.73,3.41-2.22,1.33-.49,2.79-.75,4.37-.75s3.04.25,4.4.75c1.34.5,2.49,1.24,3.46,2.22.98.99,1.73,2.21,2.26,3.69.54,1.46.79,3.16.79,5.11s-.25,3.6-.75,5.08c-.52,1.49-1.26,2.73-2.22,3.73-.95,1.01-2.09,1.77-3.41,2.27-1.3.52-2.8.77-4.41.77-3.29,0-5.93-1-7.92-2.99-2-2-2.99-4.95-2.99-8.87,0-1.94.26-3.65.79-5.11ZM51.27,98.87l5.44-15.35,5.46,15.35h-10.9ZM61.48,68.09c-1.12.32-2.53.48-4.23.48s-3.16-.15-4.29-.48c-1.12-.32-2.01-.83-2.69-1.56-.66-.72-1.13-1.64-1.4-2.75-.26-1.11-.4-2.46-.4-4.05v-19.46c2.53.96,5.32,1.44,8.41,1.44,3.26,0,6.25-.54,8.94-1.61.07-.02.12-.06.18-.08v19.71c0,1.59-.13,2.94-.39,4.05-.27,1.11-.73,2.03-1.41,2.75-.67.73-1.56,1.24-2.7,1.56ZM85.83,98.31c2.07.42,4.09.77,6.07,1.06,1.8.24,3.29.48,4.5.69,1.2.21,2.16.47,2.88.77.72.31,1.23.68,1.5,1.14.29.46.43,1.05.43,1.75,0,1.3-.61,2.25-1.81,2.86-1.2.6-3.22.9-6.09.9-3.14,0-5.82-.51-8.06-1.54-2.24-1.02-4.09-2.37-5.49-4.02l-4.35,3.88-11-28.89c.24-.06.49-.11.72-.17,2.37-.67,4.38-1.72,6.05-3.13,1.64-1.41,2.94-3.22,3.8-5.42.1-.25.18-.53.28-.79.9,1.65,2.02,3.15,3.37,4.46,1.34,1.31,2.87,2.41,4.59,3.31-1.54.49-2.9,1.12-4.05,1.93-1.53,1.02-2.7,2.31-3.5,3.88-.85,1.57-1.26,3.44-1.26,5.59,0,2.5.53,4.52,1.6,6.06,1.08,1.53,2.49,2.75,4.18,3.67,1.7.92,3.56,1.59,5.63,2.01Z"/>
  <g>
    <path class="cls-1" d="M0,133.71h8.7c6.54,0,10.69,3.6,10.69,9.77s-3.76,10.09-10.83,10.09H0v-19.86ZM8.99,149.34c3.05,0,5.07-1.84,5.07-5.73s-2.13-5.68-5.12-5.68h-3.78v11.4h3.84Z"/>
    <path class="cls-1" d="M22.81,143.64c0-5.94,4.86-10.3,10.72-10.3s10.72,3.97,10.72,10.14-4.36,10.56-10.85,10.56-10.59-4.47-10.59-10.41ZM38.92,143.61c0-3.86-2.23-5.83-5.41-5.83s-5.36,1.97-5.36,5.83,2.16,5.89,5.41,5.89,5.36-2.08,5.36-5.89Z"/>
    <path class="cls-1" d="M48.7,145.4v-11.69h5.15v11.4c0,3.15.92,4.39,4.36,4.39s4.33-1.24,4.33-4.39v-11.4h5.15v11.69c0,6.04-3.71,8.64-9.51,8.64-6.2,0-9.49-2.89-9.49-8.64Z"/>
    <path class="cls-1" d="M72.14,143.85c0-6.17,4.05-10.51,10.96-10.51,4.78,0,7.7,1.58,9.35,4.23l-4.15,2.63c-1.05-1.52-2.47-2.44-5.23-2.44-3.52,0-5.6,2.29-5.6,6.07s2.02,5.86,5.99,5.86c3.63,0,4.97-2.73,4.97-3.68v-.11h-4.26v-3.99h8.93v11.67h-2.6l-.81-2.55c-1.5,1.84-3.47,3.02-6.91,3.02-6.44,0-10.64-4.36-10.64-10.19Z"/>
    <path class="cls-1" d="M98.31,133.71h5.15v15.77h10.51v4.1h-15.66v-19.86Z"/>
    <path class="cls-1" d="M121.52,153.57h-4.99l7.51-19.86h6.15l7.57,19.86h-5.44l-1.31-3.71h-8.17l-1.31,3.71ZM126.9,138.41l-2.71,7.62h5.41l-2.71-7.62Z"/>
    <path class="cls-1" d="M139.89,150.21l3.39-3.02c1.39,1.63,3.63,2.76,6.73,2.76,2.81,0,3.92-.58,3.92-1.87,0-1.42-1.02-1.66-4.62-2.16-3.92-.55-8.67-1.39-8.67-6.36,0-4.26,3.42-6.23,8.57-6.23,4.47,0,7.15,1.21,9.22,3.42l-3.18,3.02c-.89-1.16-2.73-2.44-5.86-2.44-2.73,0-3.81.53-3.81,1.79,0,1.34,1.08,1.63,4.86,2.08,4.1.5,8.57,1.58,8.57,6.38,0,4.34-2.81,6.46-8.91,6.46-4.99,0-8.04-1.5-10.2-3.84Z"/>
    <path class="cls-1" d="M163.49,143.69c0-5.86,3.63-10.19,8.93-10.19,3.94,0,6.54,1.71,7.91,5.7l-2.02.71c-.89-2.94-2.73-4.52-5.83-4.52-4.05,0-6.65,3.31-6.65,8.28s2.6,8.2,6.73,8.2c3.02,0,5.07-1.52,5.96-4.68l2.05.76c-1.31,3.89-4.02,5.86-8.07,5.86-5.54,0-9.01-4.26-9.01-10.12Z"/>
    <path class="cls-1" d="M184.33,143.69c0-5.83,3.7-10.19,9.17-10.19s9.12,4.49,9.12,10.14-3.55,10.17-9.06,10.17-9.22-4.36-9.22-10.12ZM200.28,143.61c0-4.6-2.63-8.22-6.78-8.22s-6.83,3.42-6.83,8.28,2.86,8.2,6.88,8.2c4.31,0,6.73-3.23,6.73-8.25Z"/>
    <path class="cls-1" d="M207.64,133.79h2.29v17.87h10.12v1.92h-12.4v-19.79Z"/>
    <path class="cls-1" d="M224.38,133.79h2.29v17.87h10.12v1.92h-12.4v-19.79Z"/>
    <path class="cls-1" d="M241.12,133.79h12.64v1.92h-10.35v6.96h8.59v1.87h-8.59v7.12h10.85v1.92h-13.14v-19.79Z"/>
    <path class="cls-1" d="M257.41,143.69c0-5.78,3.52-10.19,8.91-10.19,3.86,0,6.44,1.63,7.91,5.44l-2.05.79c-1-2.94-2.71-4.33-5.81-4.33-4.2,0-6.62,3.44-6.62,8.28s2.37,8.22,6.65,8.22c3.52,0,6.23-2.73,6.23-6.73v-.29h-5.36v-1.92h7.59v10.62h-1.47l-.45-3.68c-1.39,2.52-3.55,3.92-6.59,3.92-5.6,0-8.93-4.33-8.93-10.12Z"/>
    <path class="cls-1" d="M279.96,133.79h12.64v1.92h-10.35v6.96h8.59v1.87h-8.59v7.12h10.85v1.92h-13.14v-19.79Z"/>
  </g>
</svg>